<?xml version="1.0" standalone="no"?>
<!DOCTYPE svg PUBLIC "-//W3C//DTD SVG 20010904//EN"
 "http://www.w3.org/TR/2001/REC-SVG-20010904/DTD/svg10.dtd">
<svg version="1.0" xmlns="http://www.w3.org/2000/svg"
 width="225.000000pt" height="225.000000pt" viewBox="0 0 225.000000 225.000000"
 preserveAspectRatio="xMidYMid meet">

<g transform="translate(0.000000,225.000000) scale(0.100000,-0.100000)"
fill="#000000" stroke="none">
<path d="M1005 2135 c-5 -2 -36 -6 -68 -10 -38 -4 -66 -14 -78 -26 -24 -24
-17 -39 17 -39 13 0 24 -4 24 -10 0 -5 7 -10 16 -10 15 0 15 -2 0 -25 -21 -32
-20 -42 4 -48 22 -6 28 -55 9 -74 -12 -12 -31 -85 -20 -78 14 8 11 -63 -3 -74
-13 -11 -14 -32 -3 -61 3 -8 7 -22 10 -30 3 -9 8 -3 12 15 5 17 19 43 32 58
12 16 23 35 23 43 0 9 5 12 11 8 19 -11 27 16 16 58 -7 28 -7 42 2 51 8 8 11
6 11 -9 0 -10 9 -25 20 -31 16 -11 18 -10 14 2 -4 9 0 15 7 15 7 0 3 7 -9 16
-12 8 -22 24 -22 35 0 10 -5 19 -11 19 -5 0 7 16 28 35 21 19 34 35 28 35 -5
0 -4 4 3 9 14 9 44 110 36 123 -5 8 -88 10 -109 3z"/>
<path d="M1144 2092 c6 -58 15 -82 28 -82 5 0 6 -5 3 -10 -3 -6 0 -13 9 -16
27 -10 47 -51 37 -76 -12 -33 11 -52 55 -45 20 4 32 2 29 -4 -9 -13 9 -11 23
3 14 14 16 48 3 48 -5 0 -11 10 -14 23 -5 20 -4 19 14 -5 13 -17 30 -28 44
-28 13 0 27 -5 30 -10 4 -6 12 -7 18 -4 7 4 9 4 5 -1 -4 -4 0 -14 10 -22 9 -8
12 -12 6 -9 -7 3 -12 0 -11 -7 1 -36 -4 -57 -13 -52 -5 3 -10 2 -10 -4 0 -5 6
-12 13 -14 8 -4 7 -6 -3 -6 -9 -1 -24 13 -34 30 -11 18 -15 30 -10 27 5 -3 17
3 27 14 16 17 14 23 -7 19 -5 -1 -6 5 -3 14 4 8 2 15 -2 15 -15 0 -20 -27 -8
-39 8 -8 7 -11 -6 -11 -9 0 -17 7 -17 15 0 8 -6 12 -15 9 -11 -5 -13 -16 -8
-50 5 -39 3 -44 -13 -44 -16 0 -17 -2 -4 -10 8 -5 22 -7 31 -4 9 2 24 -2 32
-11 9 -8 21 -15 28 -15 8 0 8 -5 -2 -17 -11 -13 -11 -17 -1 -20 6 -3 9 -9 6
-14 -4 -6 -10 -6 -18 0 -9 8 -12 -6 -11 -60 0 -51 -3 -68 -12 -64 -16 5 -17
-11 -3 -20 8 -5 7 -11 -1 -21 -8 -10 -14 -11 -19 -4 -4 6 -17 -9 -31 -35 -20
-38 -28 -44 -49 -41 -16 2 -24 9 -22 19 1 8 -2 18 -8 22 -5 3 -7 0 -4 -8 3 -8
-1 -21 -9 -28 -13 -12 -13 -17 6 -36 18 -20 18 -23 4 -23 -9 0 -17 -5 -17 -11
0 -6 7 -9 15 -6 11 5 12 1 6 -16 -4 -12 -6 -28 -4 -34 3 -10 -22 -12 -104 -11
-60 1 -113 -1 -119 -5 -6 -3 -10 8 -11 28 -1 31 1 33 41 40 37 7 105 15 147
18 23 2 11 27 -12 27 -12 0 -19 7 -19 19 0 10 -7 24 -15 31 -20 17 -45 -3 -45
-36 0 -16 -6 -24 -18 -24 -10 0 -23 -5 -30 -12 -17 -17 -27 -2 -12 17 11 13
10 14 -4 9 -13 -5 -16 1 -16 37 0 24 -4 39 -8 33 -12 -18 -60 -29 -55 -13 1 4
-7 4 -19 1 -14 -3 -19 -1 -14 6 4 7 20 12 37 12 19 0 29 5 29 15 0 13 4 14 23
4 12 -6 19 -8 15 -4 -4 5 -3 14 3 22 8 8 8 13 1 13 -6 0 -12 -5 -14 -11 -2 -5
-11 -7 -21 -3 -12 4 -16 13 -12 25 5 15 1 19 -18 19 -14 0 -27 -7 -31 -15 -7
-20 -36 -19 -36 1 0 11 -6 14 -20 9 -12 -4 -20 -2 -20 5 0 6 5 8 10 5 11 -7
13 6 4 29 -3 9 -11 13 -17 9 -6 -4 -8 3 -3 21 4 15 3 25 -1 23 -16 -10 0 159
18 194 5 9 2 27 -7 45 -12 23 -13 34 -3 54 11 24 12 24 20 5 6 -16 8 -14 8 13
1 30 -1 33 -20 27 -13 -5 -25 -2 -30 6 -12 21 -22 3 -10 -19 8 -15 6 -23 -9
-37 -19 -18 -20 -17 -21 6 -1 21 -2 20 -11 -8 -9 -27 -7 -35 11 -54 16 -17 21
-36 21 -76 0 -50 -1 -53 -26 -53 -24 0 -26 -2 -21 -37 3 -21 11 -56 18 -79 14
-47 6 -92 -19 -101 -9 -3 -24 -12 -32 -19 -8 -8 -28 -25 -43 -38 -27 -23 -29
-29 -24 -83 6 -75 16 -116 32 -128 6 -5 14 -22 17 -38 5 -24 3 -27 -16 -21
-36 11 -46 25 -46 64 0 41 -24 70 -57 70 -29 0 -40 46 -17 71 15 16 15 20 0
50 -9 17 -13 41 -10 53 3 15 -3 28 -21 45 -24 20 -26 28 -21 64 14 101 13 102
-15 100 -15 -1 -26 4 -25 10 0 7 -5 35 -12 64 -17 63 -45 79 -73 42 -10 -13
-19 -28 -19 -33 0 -5 -8 -26 -17 -47 -12 -28 -22 -38 -37 -36 -15 1 -22 -5
-24 -20 -3 -23 23 -83 42 -96 7 -5 4 -13 -10 -25 -35 -29 -52 -67 -59 -129 -6
-49 -4 -62 11 -77 14 -15 15 -19 3 -27 -8 -5 -22 -9 -31 -9 -10 0 -28 -16 -40
-35 -13 -19 -27 -35 -31 -35 -9 0 9 36 23 45 6 3 10 12 10 18 0 7 -9 1 -20
-13 -21 -26 -27 -12 -10 20 8 16 7 18 -4 14 -13 -5 -14 0 -6 28 13 44 13 51
-6 74 -15 18 -15 18 -5 -2 6 -13 7 -32 1 -50 -4 -16 -9 -23 -9 -16 -2 20 -21
13 -21 -8 0 -11 4 -20 9 -20 5 0 12 -9 15 -20 3 -11 9 -30 12 -41 4 -15 3 -19
-6 -14 -9 6 -9 3 0 -15 6 -12 9 -28 6 -36 -6 -16 -36 -19 -36 -3 0 5 5 7 10 4
6 -4 9 3 7 16 -2 13 -9 25 -15 27 -7 2 -12 11 -12 19 0 9 6 13 15 9 9 -3 15 0
15 9 0 8 -7 15 -15 15 -21 0 -29 -46 -16 -90 14 -47 14 -53 -1 -44 -6 4 -8 3
-4 -4 3 -6 0 -16 -7 -24 -24 -26 -21 -185 6 -300 31 -125 123 -328 150 -328 3
0 2 14 -3 30 -6 19 -5 30 2 30 5 0 12 -9 15 -20 3 -12 17 -23 32 -26 14 -3 38
-9 53 -14 30 -10 38 -5 39 24 0 20 1 20 11 -1 10 -21 18 -23 104 -23 81 0 96
-3 121 -23 35 -28 88 -53 77 -35 -5 8 -2 9 9 5 11 -4 17 -1 17 8 0 8 5 15 11
15 7 0 5 -10 -5 -25 -9 -13 -16 -27 -16 -29 0 -10 93 -53 152 -72 47 -14 62
-15 84 -5 23 10 24 14 13 29 -12 15 -12 15 7 -1 12 -10 28 -15 38 -11 27 11
18 22 -25 29 -23 4 -50 16 -61 27 -19 19 -19 20 -2 40 13 13 27 18 47 15 15
-2 30 0 33 5 3 4 0 9 -5 9 -16 2 -23 4 -54 17 -16 7 -30 12 -33 12 -2 0 -23
18 -46 40 -24 22 -49 40 -56 40 -7 0 -11 4 -8 9 3 5 -4 11 -15 14 -12 3 -18
10 -14 16 3 6 -1 11 -9 11 -9 0 -16 5 -16 10 0 6 5 10 12 10 6 0 4 6 -7 13
-10 8 -15 19 -11 25 3 6 2 13 -4 17 -5 3 -10 13 -10 21 0 9 5 12 11 8 8 -5 8
-1 0 13 -7 14 -7 23 1 31 9 9 3 12 -25 12 -20 0 -37 -4 -37 -10 0 -5 -5 -10
-11 -10 -5 0 -8 4 -5 9 4 5 2 21 -4 36 -8 21 -6 37 11 74 11 27 19 59 18 72
-1 13 -1 56 0 94 1 49 4 66 11 55 8 -12 10 -11 10 7 0 28 50 65 70 53 12 -7
10 -14 -12 -37 -29 -31 -68 -100 -68 -121 0 -7 8 -16 18 -19 9 -4 30 -19 46
-34 30 -29 30 -29 10 -141 -5 -34 -2 -41 37 -81 36 -39 44 -43 56 -31 8 8 24
14 36 14 20 -1 20 -2 5 -11 -27 -15 -22 -27 24 -49 55 -26 61 -25 53 10 -6 26
-4 30 14 30 12 0 21 -4 21 -10 0 -5 8 -10 18 -10 11 0 13 3 5 8 -11 7 -11 19
1 92 l6 35 -10 -32 c-14 -43 -28 -49 -41 -20 -9 20 -7 33 12 73 12 27 22 59
22 72 0 17 5 22 23 22 13 0 24 -5 24 -11 0 -5 -4 -8 -9 -4 -5 3 -12 1 -15 -4
-3 -5 2 -12 11 -15 15 -6 15 -8 3 -17 -13 -8 -13 -10 0 -19 20 -13 42 -9 48 9
3 10 0 12 -12 8 -21 -8 -21 2 2 19 16 13 16 13 -3 14 -18 1 -18 2 3 11 27 10
21 30 -7 22 -10 -3 -22 0 -25 6 -4 6 -15 11 -24 11 -15 0 -15 -2 -2 -11 10 -7
11 -9 2 -7 -8 2 -13 8 -13 13 0 15 33 19 41 5 6 -9 13 -9 28 -1 27 14 54 15
32 1 -11 -7 -11 -10 -2 -10 7 0 10 -5 7 -10 -3 -6 -1 -10 6 -10 8 0 6 -5 -4
-12 -13 -10 -14 -17 -6 -28 9 -13 10 -12 5 3 -4 11 -2 16 5 11 6 -3 9 -14 6
-24 -3 -11 2 -28 10 -39 8 -12 11 -21 7 -21 -3 0 -2 -6 4 -12 17 -21 25 -85
12 -93 -18 -11 -23 1 -10 27 10 21 10 22 -4 5 -14 -18 -15 -16 -25 20 -6 21
-11 49 -11 62 0 17 -4 22 -16 17 -9 -3 -26 -6 -38 -6 -15 0 -22 -7 -23 -20 -1
-16 4 -20 30 -19 l32 1 -30 7 c-20 4 -26 9 -17 14 6 5 12 6 12 2 0 -3 8 -1 19
4 17 9 19 5 26 -42 5 -29 8 -60 8 -69 0 -10 3 -15 8 -12 4 2 7 -11 5 -31 -1
-19 2 -35 7 -35 5 0 7 11 5 24 -3 16 0 27 9 30 22 9 23 8 23 -25 0 -17 3 -29
8 -27 4 2 24 12 45 21 40 18 44 26 25 45 -16 16 4 15 27 -2 17 -12 23 -9 56
24 43 42 58 84 40 111 -6 10 -11 39 -11 64 0 38 3 45 20 45 10 0 24 9 30 20 6
11 17 20 25 20 8 0 15 5 15 12 0 29 -35 105 -62 133 -28 30 -38 52 -18 40 6
-4 10 7 10 25 0 51 22 30 35 -33 14 -71 41 -106 30 -40 -5 34 -4 44 9 49 9 3
16 16 16 29 0 13 9 33 19 46 16 19 22 22 32 12 10 -10 10 -13 1 -13 -7 0 -12
-5 -12 -11 0 -7 11 -9 33 -5 46 9 90 7 102 -6 7 -7 0 -9 -25 -5 -42 6 -68 -6
-79 -36 -7 -18 -32 -37 -68 -52 -2 -1 2 -17 8 -36 6 -19 10 -58 10 -87 -1 -38
3 -54 14 -58 8 -4 15 -17 15 -30 0 -13 4 -24 8 -24 4 0 9 -39 10 -87 2 -81 0
-90 -23 -116 -19 -22 -29 -26 -39 -18 -9 8 -13 6 -13 -7 0 -9 5 -20 11 -24 13
-9 -13 -30 -26 -22 -4 3 -8 -2 -8 -11 0 -9 4 -14 9 -11 5 4 14 -15 19 -41 9
-38 8 -51 -4 -64 -15 -16 -19 -50 -6 -48 20 3 32 -2 26 -13 -8 -13 7 -5 51 28
26 20 45 24 125 26 102 3 106 6 86 63 -5 13 -2 11 8 -5 8 -14 15 -33 16 -44 0
-14 5 -17 23 -12 12 3 34 6 48 6 18 0 29 8 37 25 6 14 16 25 22 25 6 0 9 -4 5
-9 -8 -14 -13 -71 -6 -71 10 1 60 85 95 162 137 297 122 646 -40 935 -38 69
-55 79 -30 18 22 -52 20 -64 -11 -71 -23 -6 -24 -8 -10 -19 15 -10 13 -15 -16
-43 -26 -26 -41 -32 -74 -32 -23 0 -45 4 -48 10 -3 5 -24 14 -46 20 -31 9 -45
8 -67 -4 -15 -8 -42 -22 -60 -31 -30 -14 -33 -19 -27 -45 4 -17 3 -30 -1 -30
-5 0 -28 21 -52 48 -38 41 -43 51 -38 82 10 66 -57 106 -99 60 -10 -11 -22
-20 -27 -20 -14 0 -9 77 7 90 8 7 15 28 15 48 0 20 7 61 16 93 14 49 14 61 2
85 -10 22 -21 30 -48 32 -44 4 -57 16 -40 37 12 14 11 18 -1 26 -22 14 -39 11
-33 -6 10 -24 -10 -17 -41 14 -27 30 -28 30 -11 65 9 18 16 45 16 58 0 22 -4
23 -76 26 l-75 3 5 -49z m151 -152 c-4 -13 -2 -20 6 -20 7 0 4 -6 -7 -15 -12
-9 -14 -14 -6 -15 7 0 10 -5 7 -10 -5 -8 -11 -7 -21 1 -11 9 -14 9 -14 0 0 -7
-4 -10 -10 -6 -5 3 -1 14 10 25 25 25 26 41 3 34 -15 -5 -15 -3 1 10 27 22 39
20 31 -4z m70 -149 c3 -5 1 -12 -5 -16 -5 -3 -10 1 -10 9 0 18 6 21 15 7z
m-535 -141 c0 -5 -2 -10 -4 -10 -3 0 -8 5 -11 10 -3 6 -1 10 4 10 6 0 11 -4
11 -10z m-430 -64 c0 -2 -7 -7 -16 -10 -8 -3 -12 -2 -9 4 6 10 25 14 25 6z
m1100 -11 c0 -8 4 -15 10 -15 5 0 7 -6 5 -12 -6 -16 -70 -17 -85 -2 -9 9 -6
16 11 28 29 20 59 21 59 1z m-1033 -1 c-3 -3 -12 -4 -19 -1 -8 3 -5 6 6 6 11
1 17 -2 13 -5z m68 -34 c11 -5 14 -9 7 -9 -7 -1 -10 -7 -7 -13 4 -7 1 -6 -7 3
-7 9 -19 14 -27 11 -8 -3 -11 0 -7 7 8 13 13 13 41 1z m429 -6 c30 -12 16 -24
-26 -23 -31 2 -35 3 -15 6 15 2 25 9 22 14 -7 11 -3 11 19 3z m-564 -20 c0 -2
-7 -4 -15 -4 -8 0 -15 4 -15 10 0 5 7 7 15 4 8 -4 15 -8 15 -10z m410 6 c0 -5
-5 -10 -11 -10 -5 0 -7 5 -4 10 3 6 8 10 11 10 2 0 4 -4 4 -10z m70 2 c0 -4
-9 -8 -19 -8 -11 0 -17 4 -15 8 3 4 12 8 20 8 8 0 14 -4 14 -8z m1158 -17 c-3
-3 -9 2 -12 12 -6 14 -5 15 5 6 7 -7 10 -15 7 -18z m-1546 -51 c-5 -26 12 -33
22 -9 6 17 36 20 36 4 0 -6 -6 -9 -14 -6 -18 7 -24 -8 -20 -50 1 -18 -3 -33
-8 -33 -6 0 -8 9 -5 19 3 14 1 18 -9 14 -8 -3 -14 -11 -14 -18 0 -7 -8 -16
-17 -19 -13 -5 -14 -9 -5 -15 25 -15 -18 -35 -73 -35 l-52 1 16 -28 c9 -17 22
-27 29 -24 8 3 27 5 44 5 26 0 29 2 18 15 -10 12 -10 15 3 15 8 0 19 6 25 13
14 17 102 22 102 7 0 -6 -10 -11 -22 -10 -13 1 -36 1 -53 0 -30 -2 -30 -2 -5
-10 25 -8 25 -8 -5 -9 -29 -2 -29 -2 -10 -16 11 -8 25 -19 32 -25 16 -13 33
-13 33 2 0 6 2 9 5 6 4 -3 3 -17 -1 -32 -5 -21 -12 -26 -39 -26 -28 0 -33 -4
-38 -27 -7 -35 5 -56 13 -23 5 21 12 25 45 26 25 1 29 0 13 -3 -38 -6 -35 -23
5 -25 l32 -1 -33 -4 c-28 -4 -32 -8 -27 -24 6 -18 3 -20 -32 -17 -35 3 -38 1
-38 -22 0 -22 4 -25 39 -25 23 0 41 -5 44 -13 3 -9 -6 -11 -37 -6 -22 4 -48 4
-57 0 -16 -6 -15 -8 2 -21 16 -12 16 -14 3 -15 -9 0 -24 9 -34 20 -22 24 -82
37 -98 21 -15 -15 -47 -14 -47 2 0 8 -3 7 -10 -3 -8 -13 -11 -13 -22 -1 -11
11 -11 13 1 6 9 -5 12 -4 7 3 -4 6 -14 8 -23 5 -12 -5 -14 -3 -9 8 4 8 1 6 -7
-4 -13 -16 -16 -16 -27 -2 -15 18 -22 115 -8 115 5 0 6 5 3 10 -10 16 3 12 23
-7 9 -10 16 -28 14 -40 -3 -21 -3 -21 32 -5 20 10 38 24 41 33 11 33 100 40
110 9 3 -11 12 -20 20 -20 7 0 21 -3 30 -6 13 -6 15 -2 8 22 -4 16 -7 41 -6
56 2 20 -2 26 -12 21 -8 -3 -15 -15 -15 -28 0 -23 0 -23 -35 -5 -26 14 -52 17
-109 14 l-75 -4 41 59 41 59 65 -3 c83 -4 92 0 88 36 -3 26 0 29 26 29 32 0
50 27 27 41 -20 13 -29 11 -29 -6 0 -21 -17 -19 -30 5 -6 11 -8 20 -4 20 3 0
1 6 -5 13 -14 17 -4 27 26 27 13 0 26 7 30 16 5 14 8 13 18 -6 6 -12 10 -33 7
-46z m950 51 c0 -5 -5 -11 -11 -13 -6 -2 -11 4 -11 13 0 9 5 15 11 13 6 -2 11
-8 11 -13z m58 5 c0 -5 -4 -10 -10 -10 -5 0 -10 5 -10 10 0 6 5 10 10 10 6 0
10 -4 10 -10z m-90 -20 c0 -5 -9 -10 -20 -10 -11 0 -20 5 -20 10 0 6 9 10 20
10 11 0 20 -4 20 -10z m564 1 c3 -5 -1 -14 -8 -20 -10 -9 -16 -9 -21 -1 -4 6
-1 9 7 8 7 -2 12 3 11 10 -3 14 3 16 11 3z m-1596 -30 c-3 -22 -9 -26 -38 -29
-24 -2 -31 0 -21 6 9 7 10 12 2 16 -25 16 -11 35 25 34 32 -1 35 -4 32 -27z
m527 19 c3 -5 -1 -10 -9 -10 -8 0 -18 5 -21 10 -3 6 1 10 9 10 8 0 18 -4 21
-10z m569 -5 c-4 -8 -1 -15 5 -15 6 0 11 -5 11 -11 0 -8 -5 -8 -15 1 -17 14
-20 40 -5 40 5 0 7 -7 4 -15z m318 -2 c9 -10 19 -28 22 -40 4 -12 18 -31 32
-42 25 -20 32 -47 12 -53 -6 -2 -12 -12 -14 -21 -1 -9 2 -15 7 -11 5 3 9 1 9
-5 0 -5 -5 -13 -11 -17 -8 -4 -8 -9 0 -17 15 -15 14 -30 -3 -24 -7 3 -19 0
-26 -6 -10 -9 -11 -9 -4 3 20 36 10 84 -11 50 -3 -5 -21 -10 -38 -10 -26 1
-37 8 -59 41 -16 21 -28 47 -28 55 0 13 7 15 28 11 20 -4 35 1 56 19 33 29 28
43 -9 26 -41 -19 -105 -13 -105 9 0 13 59 41 72 33 7 -4 8 -3 4 4 -12 20 49
14 66 -5z m-354 -15 c20 -17 14 -27 -28 -39 -21 -7 -37 -16 -34 -20 3 -5 -4
-9 -15 -9 -16 0 -23 -10 -32 -45 -11 -42 -14 -45 -43 -44 -30 1 -30 1 -6 9
l25 8 -25 2 -25 2 25 8 c18 6 20 8 7 9 -26 1 -16 23 19 40 46 22 58 49 24 58
-15 4 -17 8 -7 17 7 7 19 15 26 17 20 7 74 -2 89 -13z m569 0 c-3 -8 -6 -5 -6
6 -1 11 2 17 5 13 3 -3 4 -12 1 -19z m-1097 -8 c0 -5 -2 -10 -4 -10 -3 0 -8 5
-11 10 -3 6 -1 10 4 10 6 0 11 -4 11 -10z m996 -2 c4 -6 3 -8 -4 -4 -5 3 -12
2 -14 -3 -6 -18 -41 -17 -43 2 -3 13 4 17 25 17 16 0 32 -5 36 -12z m-1040
-18 c9 0 12 5 8 12 -4 7 -3 8 4 4 7 -4 12 -14 12 -22 0 -9 7 -14 18 -12 11 2
16 -3 14 -14 -2 -12 4 -18 15 -18 10 0 24 -9 31 -20 11 -18 10 -20 -10 -21
-22 -1 -22 -1 2 -9 17 -5 19 -8 8 -9 -10 -1 -18 -5 -18 -11 0 -5 -6 -10 -14
-10 -12 0 -23 32 -29 81 -1 14 -6 15 -25 8 -20 -8 -23 -7 -18 6 3 8 0 15 -7
15 -7 0 -13 10 -14 23 0 12 1 16 4 10 3 -7 11 -13 19 -13z m1039 -11 c-4 -6
-1 -10 6 -8 26 3 36 -1 36 -16 0 -10 -4 -12 -12 -5 -10 8 -21 12 -65 19 -7 2
23 21 33 21 5 0 5 -5 2 -11z m-1349 -29 c-1 -17 -7 -30 -13 -30 -16 0 -16 15
-1 40 7 11 13 20 14 20 1 0 1 -13 0 -30z m758 9 c-3 -5 -10 -7 -15 -3 -5 3 -7
10 -3 15 3 5 10 7 15 3 5 -3 7 -10 3 -15z m186 -8 c0 -5 -9 -11 -21 -14 -26
-7 -20 -31 9 -35 16 -3 22 2 22 17 0 11 5 23 11 27 8 5 10 -1 5 -19 -3 -14 -1
-29 4 -32 8 -5 7 -11 -1 -22 -11 -12 -14 -12 -21 1 -13 23 -31 20 -23 -3 3
-11 1 -22 -5 -26 -5 -3 -10 -2 -10 3 0 6 -12 13 -27 17 -24 6 -26 8 -10 16 10
6 17 22 17 39 0 17 7 33 17 39 18 10 33 6 33 -8z m151 -14 c-16 -16 -26 0 -10
19 9 11 15 12 17 4 2 -6 -1 -17 -7 -23z m-46 13 c3 -5 -1 -10 -9 -10 -9 0 -16
5 -16 10 0 6 4 10 9 10 6 0 13 -4 16 -10z m-1222 -7 c-7 -2 -21 -2 -30 0 -10
3 -4 5 12 5 17 0 24 -2 18 -5z m453 -35 c4 -7 3 -8 -4 -4 -7 4 -12 2 -12 -5 0
-7 -3 -10 -6 -6 -6 5 3 27 11 27 2 0 7 -5 11 -12z m764 8 c0 -9 -30 -14 -35
-6 -4 6 3 10 14 10 12 0 21 -2 21 -4z m377 -10 c-2 -6 -11 -12 -20 -14 -11 -2
-15 1 -12 11 7 16 37 19 32 3z m-297 -17 c11 -19 10 -20 -9 -9 -22 11 -29 30
-11 30 5 0 14 -9 20 -21z m-55 1 c3 -5 -1 -10 -9 -10 -9 0 -16 5 -16 10 0 6 4
10 9 10 6 0 13 -4 16 -10z m-995 -35 c0 -3 -5 -3 -12 1 -7 4 -8 3 -4 -4 9 -14
-15 -52 -33 -52 -11 0 -11 3 -1 15 12 14 7 20 -15 15 -5 -1 0 8 13 20 12 11
22 25 22 31 0 6 7 4 15 -5 8 -8 15 -17 15 -21z m1245 16 c4 -13 12 -17 25 -14
11 3 20 1 20 -5 0 -6 -8 -12 -17 -14 -16 -3 -16 -4 0 -20 9 -9 17 -25 16 -35
0 -15 -2 -14 -9 5 -5 12 -14 22 -20 22 -5 0 -10 8 -10 18 0 10 -7 28 -16 40
-8 12 -11 22 -5 22 5 0 12 -9 16 -19z m215 -9 c0 -5 -7 -9 -15 -9 -8 0 -12 4
-9 9 3 4 9 8 15 8 5 0 9 -4 9 -8z m-895 -37 c6 -2 0 -7 -12 -10 -13 -4 -20
-12 -16 -21 3 -8 -1 -14 -10 -14 -8 0 -18 -7 -21 -15 -5 -14 -10 -13 -35 6
-17 12 -28 26 -25 30 2 4 -5 10 -16 14 -40 13 -9 23 57 18 38 -3 73 -6 78 -8z
m750 5 c-3 -5 -14 -10 -23 -10 -15 0 -15 2 -2 10 20 13 33 13 25 0z m-430 -10
c-3 -5 -12 -10 -18 -10 -7 0 -6 4 3 10 19 12 23 12 15 0z m160 -9 c-11 -5 -23
-7 -26 -5 -4 2 -9 -6 -12 -17 -3 -12 -10 -18 -16 -14 -22 13 8 45 42 44 26 0
28 -2 12 -8z m73 -9 c4 -14 -34 -16 -42 -3 -6 10 13 21 28 17 6 -1 12 -8 14
-14z m-749 -15 c0 -7 -4 -21 -9 -32 -9 -20 -9 -20 -9 1 -1 11 -5 24 -11 30 -6
6 -3 10 10 11 11 1 20 -4 19 -10z m265 -33 l-7 -29 -8 29 c-9 33 -2 53 13 38
5 -5 6 -22 2 -38z m686 42 c0 -3 -4 -8 -10 -11 -5 -3 -10 -1 -10 4 0 6 5 11
10 11 6 0 10 -2 10 -4z m25 -6 c-3 -5 -1 -10 6 -10 7 0 10 -3 6 -6 -9 -9 -28
6 -22 17 4 5 8 9 11 9 3 0 2 -4 -1 -10z m-84 -43 c-8 -8 -11 -3 -11 19 1 25 2
27 11 11 8 -14 8 -22 0 -30z m-121 23 c0 -4 -27 -8 -61 -9 -38 -1 -58 2 -54 8
6 11 115 12 115 1z m90 -4 c0 -9 -7 -12 -20 -9 -11 3 -20 9 -20 14 0 5 9 9 20
9 11 0 20 -6 20 -14z m-1260 -12 c0 -2 -9 -4 -21 -4 -11 0 -18 4 -14 10 5 8
35 3 35 -6z m430 -1 c0 -10 -5 -25 -10 -33 -7 -11 -10 -7 -10 18 0 17 5 32 10
32 6 0 10 -8 10 -17z m210 0 c0 -10 -4 -24 -9 -31 -6 -11 -9 -10 -13 5 -3 10
-3 24 -1 31 7 18 23 15 23 -5z m-563 1 c-3 -3 -12 -4 -19 -1 -8 3 -5 6 6 6 11
1 17 -2 13 -5z m256 -34 c2 -19 7 -42 10 -50 12 -34 17 -110 8 -127 -5 -10
-12 -31 -16 -46 -6 -29 -25 -28 -25 1 0 15 2 15 11 2 9 -12 10 -12 5 3 -3 10
-7 31 -7 45 -1 24 -2 24 -8 -6 -3 -18 -9 -33 -13 -32 -5 0 -17 0 -28 0 -12 0
-22 9 -26 24 -3 13 -16 34 -29 46 -22 21 -24 60 -3 60 5 0 6 6 1 13 -9 15 -14
41 -6 33 4 -3 12 -1 20 6 11 8 12 7 7 -6 -3 -9 -10 -16 -16 -16 -5 0 -6 -5 -3
-11 5 -7 14 -4 28 8 11 10 17 12 13 6 -4 -7 -2 -13 4 -13 6 0 9 -8 6 -17 -3
-10 -1 -25 4 -33 7 -11 10 -8 10 16 0 16 6 36 13 43 6 6 12 15 13 19 4 27 17
72 20 70 2 -2 5 -19 7 -38z m400 -26 c2 -7 8 -18 14 -26 6 -7 13 -29 16 -48
l4 -35 1 38 c1 20 7 37 13 37 5 0 7 -6 3 -12 -6 -10 -4 -10 8 0 12 9 18 10 23
2 5 -8 11 -7 21 1 13 10 15 6 13 -28 -2 -29 -7 -40 -18 -39 -9 1 -20 -13 -27
-33 -19 -59 -71 -83 -60 -28 4 23 3 28 -4 17 -8 -12 -10 -10 -10 9 0 33 -6 24
-13 -22 -3 -22 -2 -35 4 -32 5 4 9 2 9 -4 0 -24 -20 -19 -25 6 -4 15 -10 38
-15 50 -10 25 -2 121 11 129 5 3 9 24 10 47 1 41 1 42 10 12 6 -16 11 -35 12
-41z m267 56 c0 -5 -4 -10 -10 -10 -5 0 -10 5 -10 10 0 6 5 10 10 10 6 0 10
-4 10 -10z m-396 -32 c-1 -13 -3 -27 -4 -33 -1 -5 -6 1 -11 14 -10 26 -5 56 9
47 5 -3 8 -15 6 -28z m463 26 c13 -4 21 -10 18 -14 -10 -16 38 -23 49 -8 21
28 64 30 101 5 18 -13 31 -28 27 -33 -4 -6 -41 -12 -82 -13 -41 -1 -73 0 -70
3 3 2 34 6 68 7 35 1 66 7 69 12 3 6 1 7 -5 3 -6 -3 -16 3 -22 14 -8 16 -17
19 -33 14 -12 -4 -25 -11 -28 -16 -3 -5 -25 -12 -48 -15 -34 -5 -41 -3 -41 11
0 23 -34 17 -38 -6 -2 -12 6 -18 30 -21 26 -3 23 -4 -15 -5 -42 -2 -46 0 -38
16 5 9 12 25 15 35 6 19 10 20 43 11z m360 0 c-3 -3 -12 -4 -19 -1 -8 3 -5 6
6 6 11 1 17 -2 13 -5z m-1391 -17 c4 -4 -5 -7 -20 -7 -15 0 -25 4 -22 9 7 10
31 9 42 -2z m424 -11 c0 -24 -26 -54 -37 -42 -3 3 -1 6 5 6 7 0 12 14 12 30 0
17 5 30 10 30 6 0 10 -11 10 -24z m850 4 c0 -5 -4 -10 -10 -10 -5 0 -10 5 -10
10 0 6 5 10 10 10 6 0 10 -4 10 -10z m-738 -38 c1 -22 7 -31 15 -28 19 8 16 2
-14 -25 -15 -13 -22 -17 -15 -8 10 13 10 23 1 42 -6 14 -9 33 -5 43 9 23 15
15 18 -24z m413 28 c3 -5 1 -10 -4 -10 -6 0 -11 5 -11 10 0 6 2 10 4 10 3 0 8
-4 11 -10z m-492 -7 c8 -15 -14 -74 -24 -67 -8 5 -8 8 -1 13 7 4 7 12 2 20 -4
8 -6 20 -3 28 6 14 19 17 26 6z m313 -5 c4 4 3 0 -4 -9 -6 -9 -11 -18 -9 -20
1 -2 0 -2 -3 -1 -3 2 -5 7 -5 10 0 4 -4 14 -10 22 -7 12 -6 13 7 3 8 -7 19 -9
24 -5z m37 -10 c-9 -10 -21 -18 -27 -18 -6 0 -4 5 4 10 8 5 11 10 7 10 -15 0
2 17 18 17 13 0 13 -3 -2 -19z m-825 -8 c11 -19 10 -20 -24 -20 -31 0 -35 -3
-29 -20 5 -14 2 -20 -10 -20 -11 0 -15 7 -13 23 2 16 11 23 31 25 20 2 27 8
23 18 -8 21 7 17 22 -6z m265 -5 c-3 -9 -8 -14 -10 -11 -3 3 -2 9 2 15 9 16
15 13 8 -4z m252 -7 c-4 -38 -5 -39 -15 -33 -14 9 -12 42 3 48 6 3 13 6 13 6
1 1 0 -9 -1 -21z m233 -3 c-3 -3 -9 2 -12 12 -6 14 -5 15 5 6 7 -7 10 -15 7
-18z m544 -4 c-10 -9 -17 -22 -15 -28 3 -7 0 -13 -7 -13 -6 0 -8 4 -5 10 3 5
-4 12 -17 14 -55 12 -60 15 -21 12 41 -4 72 12 56 28 -4 4 0 4 10 0 16 -6 16
-7 -1 -23z m-412 -28 c0 -7 -4 -13 -10 -13 -5 0 -10 12 -10 28 0 21 2 24 10
12 5 -8 10 -21 10 -27z m220 21 c0 -2 -12 -4 -27 -4 -21 0 -24 3 -14 9 13 8
41 5 41 -5z m-940 -9 c0 -8 -4 -15 -10 -15 -5 0 -7 7 -4 15 4 8 8 15 10 15 2
0 4 -7 4 -15z m833 8 c-7 -2 -21 -2 -30 0 -10 3 -4 5 12 5 17 0 24 -2 18 -5z
m144 1 c-3 -3 -12 -4 -19 -1 -8 3 -5 6 6 6 11 1 17 -2 13 -5z m-1080 -20 c-3
-3 -12 -4 -19 -1 -8 3 -5 6 6 6 11 1 17 -2 13 -5z m313 2 c0 -2 -7 -7 -16 -10
-8 -3 -12 -2 -9 4 6 10 25 14 25 6z m130 -21 c5 3 11 1 15 -5 9 -14 -18 -13
-33 2 -7 7 -12 17 -12 23 0 5 5 2 11 -8 6 -9 14 -15 19 -12z m83 10 c-3 -9 -8
-14 -10 -11 -3 3 -2 9 2 15 9 16 15 13 8 -4z m-147 -7 c3 -4 -1 -5 -10 -4 -8
1 -18 5 -22 8 -3 4 1 5 10 4 8 -1 18 -5 22 -8z m622 5 c-10 -2 -26 -2 -35 0
-10 3 -2 5 17 5 19 0 27 -2 18 -5z m-435 -24 c-8 -8 -13 -7 -18 2 -5 8 -4 10
3 5 7 -4 12 -2 12 5 0 7 3 9 7 6 4 -4 2 -12 -4 -18z m-627 -14 c-9 -20 -11
-20 -28 -6 -19 16 -11 27 20 27 15 0 16 -4 8 -21z m1021 11 c-4 -9 2 -17 14
-21 10 -4 19 -13 19 -20 0 -8 8 -18 17 -24 10 -5 14 -13 9 -18 -5 -4 -11 -2
-13 5 -7 17 -23 15 -23 -4 0 -8 -5 -12 -10 -9 -6 4 -7 13 -1 24 6 10 6 23 0
32 -8 12 -11 11 -23 -4 -10 -13 -16 -15 -21 -7 -4 7 -2 17 4 23 17 17 13 25
-11 30 -16 3 -13 5 11 6 25 1 32 -2 28 -13z m53 4 c-8 -5 -22 -9 -30 -9 -10 0
-8 3 5 9 27 12 43 12 25 0z m45 0 c3 -5 2 -10 -4 -10 -5 0 -13 5 -16 10 -3 6
-2 10 4 10 5 0 13 -4 16 -10z m145 6 c0 -3 -4 -8 -10 -11 -5 -3 -10 -1 -10 4
0 6 5 11 10 11 6 0 10 -2 10 -4z m-870 -41 c0 -3 -6 -4 -12 -2 -7 1 -12 -4
-10 -11 1 -8 -2 -11 -7 -8 -5 4 -9 15 -8 25 1 16 5 17 19 10 10 -5 18 -12 18
-14z m-329 8 c-11 -5 -11 -7 0 -14 11 -7 10 -9 -3 -9 -18 0 -23 11 -11 23 3 4
11 7 17 6 6 0 5 -3 -3 -6z m579 -14 c0 -6 -4 -7 -10 -4 -5 3 -10 11 -10 16 0
6 5 7 10 4 6 -3 10 -11 10 -16z m570 11 c0 -5 -17 -9 -37 -9 l-38 2 35 7 c19
4 36 8 38 9 1 0 2 -3 2 -9z m-1450 -10 c10 -6 11 -10 3 -10 -7 0 -13 -6 -13
-13 0 -10 22 -13 93 -11 75 2 81 1 32 -5 -37 -4 -59 -10 -58 -18 2 -7 -14 -11
-45 -11 -26 0 -53 5 -61 11 -12 9 -13 9 -7 0 7 -12 -5 -18 -27 -14 -4 1 -10
-6 -13 -14 -4 -8 -15 -15 -26 -15 -15 0 -18 -5 -13 -20 3 -11 2 -20 -3 -20
-12 0 -11 32 2 49 9 12 8 13 -6 8 -13 -5 -18 -1 -18 11 0 11 -8 18 -20 19 -24
2 -25 -5 -5 -34 13 -18 13 -22 0 -27 -8 -3 -14 -2 -13 2 1 4 -2 17 -6 30 -10
29 16 72 44 72 10 0 28 -12 41 -27 l22 -28 -5 28 c-6 30 3 35 22 12 16 -19 46
-19 54 0 3 8 0 14 -6 12 -6 -1 -13 4 -15 11 -6 14 25 16 47 2z m185 0 c-3 -5
-12 -7 -20 -3 -21 7 -19 13 6 13 11 0 18 -4 14 -10z m476 -46 c-7 -29 -9 -33
-10 -13 -1 14 -7 31 -13 38 -11 11 -10 13 5 8 12 -4 17 -1 18 11 0 9 3 12 5 6
2 -6 0 -28 -5 -50z m832 26 c-10 -11 -19 -20 -21 -20 -1 0 2 9 8 20 6 11 15
20 20 20 6 0 2 -9 -7 -20z m-627 0 c8 0 14 -5 14 -11 0 -6 -9 -8 -20 -4 -19 6
-19 4 -8 -20 9 -19 9 -28 0 -37 -16 -16 -23 -6 -29 43 -5 37 -4 42 11 36 10
-4 24 -7 32 -7z m528 -2 c-3 -4 -9 -8 -15 -8 -5 0 -9 4 -9 8 0 5 7 9 15 9 8 0
12 -4 9 -9z m-809 -8 c3 -5 1 -10 -4 -10 -6 0 -11 5 -11 10 0 6 2 10 4 10 3 0
8 -4 11 -10z m314 -36 c-18 -22 -22 -11 -7 22 10 21 14 24 16 10 2 -9 -2 -24
-9 -32z m-661 29 c-10 -2 -26 -2 -35 0 -10 3 -2 5 17 5 19 0 27 -2 18 -5z m59
1 c-3 -3 -12 -4 -19 -1 -8 3 -5 6 6 6 11 1 17 -2 13 -5z m1060 -10 c-3 -3 -12
-4 -19 -1 -8 3 -5 6 6 6 11 1 17 -2 13 -5z m63 -4 c0 -5 -2 -10 -4 -10 -3 0
-8 5 -11 10 -3 6 -1 10 4 10 6 0 11 -4 11 -10z m-825 -18 c-3 -3 -11 0 -18 7
-9 10 -8 11 6 5 10 -3 15 -9 12 -12z m36 11 c-11 -5 -11 -7 0 -14 11 -7 10 -9
-3 -9 -10 0 -18 7 -18 15 0 8 8 15 18 14 12 0 13 -2 3 -6z m-521 -13 c0 -5 -5
-10 -11 -10 -5 0 -7 5 -4 10 3 6 8 10 11 10 2 0 4 -4 4 -10z m1205 -10 c-3 -5
-14 -10 -23 -10 -15 0 -15 2 -2 10 20 13 33 13 25 0z m-1341 -21 c-7 -11 -54
-12 -54 -1 0 15 10 19 35 14 14 -2 22 -8 19 -13z m626 17 c0 -2 -9 -6 -20 -9
-11 -3 -18 -1 -14 4 5 9 34 13 34 5z m787 -2 c-3 -3 -12 -4 -19 -1 -8 3 -5 6
6 6 11 1 17 -2 13 -5z m-743 -25 c-8 -14 -21 -11 -21 5 0 8 6 12 14 9 7 -3 10
-9 7 -14z m-614 -9 c0 -5 -6 -10 -12 -10 -9 0 -8 -4 2 -10 17 -11 9 -13 -14
-4 -13 5 -14 9 -5 20 13 16 29 18 29 4z m198 -7 c-10 -2 -26 -2 -35 0 -10 3
-2 5 17 5 19 0 27 -2 18 -5z m1042 -13 c-20 -13 -33 -13 -25 0 3 6 14 10 23
10 15 0 15 -2 2 -10z m-1117 -35 c4 3 5 2 2 -2 -3 -4 -13 -8 -21 -9 -9 -1 -13
0 -10 3 3 4 0 13 -6 22 -10 12 -7 12 8 -2 11 -9 24 -15 27 -12z m-332 -8 c-10
-9 -11 -8 -5 6 3 10 9 15 12 12 3 -3 0 -11 -7 -18z m67 12 c-2 -6 -8 -10 -13
-10 -5 0 -11 4 -13 10 -2 6 4 11 13 11 9 0 15 -5 13 -11z m1379 5 c-3 -3 -12
-4 -19 -1 -8 3 -5 6 6 6 11 1 17 -2 13 -5z m70 0 c-3 -3 -12 -4 -19 -1 -8 3
-5 6 6 6 11 1 17 -2 13 -5z m-671 -62 c-12 -11 -36 9 -36 30 l1 23 20 -24 c11
-13 17 -26 15 -29z m-746 28 c0 -5 -5 -10 -11 -10 -5 0 -7 5 -4 10 3 6 8 10
11 10 2 0 4 -4 4 -10z m422 -39 c-1 -7 2 -10 7 -6 16 9 44 -41 36 -65 -3 -11
-11 -20 -16 -20 -6 0 -7 -4 -4 -10 3 -6 -1 -7 -9 -4 -9 3 -14 9 -12 13 3 4 1
13 -4 21 -7 11 -9 6 -7 -15 2 -23 8 -31 25 -33 21 -3 26 -15 24 -57 0 -11 2
-14 4 -7 9 19 24 4 24 -24 0 -15 -6 -24 -16 -24 -8 0 -13 4 -10 9 6 10 -16 61
-26 61 -5 0 -8 5 -8 11 0 5 5 7 12 3 7 -4 8 -3 4 5 -4 6 -15 10 -24 9 -15 -3
-17 9 -20 75 -2 61 0 78 10 74 7 -2 12 -10 10 -16z m-255 -23 c-3 -8 -6 -5 -6
6 -1 11 2 17 5 13 3 -3 4 -12 1 -19z m1131 -23 c1 -25 -2 -45 -7 -45 -5 0 -11
-7 -14 -14 -4 -11 -1 -13 11 -9 15 6 15 5 3 -11 -13 -15 -17 -16 -25 -4 -6 8
-17 13 -24 11 -7 -3 -10 1 -6 11 3 9 15 16 26 16 16 0 19 6 17 33 -3 27 5 57
15 57 2 0 4 -20 4 -45z m-811 -71 c1 -35 1 -36 -11 -13 -8 16 -9 28 -3 37 13
17 13 17 14 -24z"/>
<path d="M424 1460 c0 -18 1 -18 21 -2 11 9 22 18 24 19 2 2 -7 3 -20 3 -18 0
-25 -5 -25 -20z"/>
<path d="M285 1290 c-21 -9 -18 -11 15 -13 11 -1 20 3 21 8 1 13 -12 15 -36 5z"/>
<path d="M274 1255 c-18 -14 -18 -14 9 -15 15 0 27 4 27 9 0 18 -17 20 -36 6z"/>
<path d="M463 1203 c9 -2 23 -2 30 0 6 3 -1 5 -18 5 -16 0 -22 -2 -12 -5z"/>
<path d="M1740 1371 c0 -4 19 -17 42 -30 24 -12 40 -19 36 -16 -4 4 -1 14 7
22 8 8 15 19 15 24 0 12 -17 12 -25 -1 -3 -5 -15 -10 -26 -10 -11 0 -18 4 -15
8 2 4 -4 9 -15 9 -10 1 -19 -2 -19 -6z"/>
<path d="M1777 1307 c-3 -8 1 -14 8 -14 7 0 11 6 8 14 -3 7 -6 13 -8 13 -2 0
-5 -6 -8 -13z"/>
<path d="M820 1067 l-25 -32 27 20 c15 11 28 26 28 33 0 17 -1 15 -30 -21z"/>
<path d="M1413 1056 c0 -7 6 -13 14 -13 7 0 13 4 13 8 0 4 -6 9 -13 12 -8 3
-14 0 -14 -7z"/>
<path d="M240 936 c0 -2 7 -7 16 -10 8 -3 12 -2 9 4 -6 10 -25 14 -25 6z"/>
<path d="M713 724 c0 -7 4 -11 9 -8 4 3 8 1 8 -4 0 -5 6 -9 14 -9 19 0 9 24
-13 30 -10 2 -18 -1 -18 -9z"/>
<path d="M1095 1880 c3 -5 8 -10 11 -10 2 0 4 5 4 10 0 6 -5 10 -11 10 -5 0
-7 -4 -4 -10z"/>
<path d="M1140 1879 c0 -5 5 -7 10 -4 6 3 10 8 10 11 0 2 -4 4 -10 4 -5 0 -10
-5 -10 -11z"/>
<path d="M1186 1863 c5 -5 12 -12 15 -16 3 -5 9 -2 12 7 5 12 0 16 -15 16 -12
0 -17 -3 -12 -7z"/>
<path d="M1110 1835 c0 -8 8 -15 18 -15 13 0 14 2 3 9 -11 7 -11 9 0 14 10 4
9 6 -3 6 -10 1 -18 -6 -18 -14z"/>
<path d="M1228 1687 c-3 -156 -2 -164 16 -159 17 5 18 12 12 86 -3 45 -6 116
-6 159 0 42 -4 77 -10 77 -5 0 -10 -69 -12 -163z"/>
<path d="M875 1830 c-3 -5 -1 -10 4 -10 6 0 11 5 11 10 0 6 -2 10 -4 10 -3 0
-8 -4 -11 -10z"/>
<path d="M1266 1825 c4 -8 10 -12 15 -9 11 6 2 24 -11 24 -5 0 -7 -7 -4 -15z"/>
<path d="M1298 1819 c-3 -8 1 -20 8 -27 15 -14 17 -7 5 22 -6 15 -9 16 -13 5z"/>
<path d="M1276 1763 c-6 -14 -5 -15 5 -6 7 7 10 15 7 18 -3 3 -9 -2 -12 -12z"/>
<path d="M1315 1740 c3 -5 8 -10 11 -10 2 0 4 5 4 10 0 6 -5 10 -11 10 -5 0
-7 -4 -4 -10z"/>
<path d="M1334 1643 c9 -18 22 -33 29 -32 9 0 9 2 0 6 -7 2 -13 10 -13 18 0 7
-7 19 -17 26 -15 13 -15 11 1 -18z"/>
<path d="M1000 1635 c-7 -9 -8 -15 -2 -15 5 0 12 7 16 15 3 8 4 15 2 15 -2 0
-9 -7 -16 -15z"/>
<path d="M985 1599 c-11 -17 -2 -18 19 -3 17 12 17 14 4 14 -9 0 -20 -5 -23
-11z"/>
<path d="M1010 1580 c-8 -5 -10 -10 -5 -10 6 0 17 5 25 10 8 5 11 10 5 10 -5
0 -17 -5 -25 -10z"/>
<path d="M1060 921 c0 -5 5 -13 10 -16 6 -3 10 -2 10 4 0 5 -4 13 -10 16 -5 3
-10 2 -10 -4z"/>
<path d="M1130 840 c0 -5 5 -10 11 -10 5 0 7 5 4 10 -3 6 -8 10 -11 10 -2 0
-4 -4 -4 -10z"/>
<path d="M1455 839 c-4 -6 -4 -13 -1 -16 3 -4 6 -1 6 6 0 7 5 9 11 6 6 -5 4
-16 -7 -33 -16 -24 -16 -26 -1 -13 15 12 17 11 17 -2 0 -9 -5 -19 -10 -22 -6
-4 -8 -11 -4 -16 3 -6 -2 -17 -12 -24 -15 -11 -16 -14 -4 -15 12 0 11 -3 -3
-11 -9 -6 -15 -14 -12 -20 4 -5 -2 -12 -12 -16 -10 -4 -23 -12 -29 -17 -31
-29 -55 -46 -65 -46 -5 0 -7 -4 -4 -10 3 -5 -1 -10 -10 -10 -9 0 -13 -4 -10
-10 3 -5 0 -10 -7 -10 -7 0 -25 -6 -40 -14 -20 -10 -29 -11 -39 -2 -9 8 -10 8
-5 -1 3 -6 0 -14 -6 -16 -7 -3 0 -6 15 -6 62 -2 90 -46 45 -69 -32 -15 -96
-31 -102 -25 -9 9 -85 10 -80 1 3 -4 0 -8 -7 -8 -8 0 -9 -4 0 -13 13 -16 73
-15 79 1 2 8 11 8 29 1 18 -7 30 -6 42 3 9 7 13 8 8 3 -4 -4 0 -16 8 -26 13
-14 23 -15 58 -7 55 12 142 44 171 63 23 16 46 62 23 48 -6 -4 -8 0 -4 10 3 9
3 16 -1 16 -28 -4 -32 4 -32 69 0 47 3 63 10 52 8 -13 10 -13 10 2 0 9 -3 18
-7 21 -5 2 -3 3 4 1 6 -1 13 7 16 18 3 11 10 17 16 13 7 -4 7 3 -1 20 -11 24
-9 29 12 45 13 10 29 17 34 16 6 -2 8 -1 4 1 -5 3 -8 20 -8 39 0 34 -1 34 -44
34 -25 0 -48 -5 -51 -11z"/>
<path d="M1086 805 c-3 -8 -1 -15 4 -15 6 0 10 5 10 11 0 7 11 9 30 6 17 -4
30 -2 30 3 0 16 -67 12 -74 -5z"/>
<path d="M890 724 c8 -8 23 -20 34 -26 14 -6 11 -1 -8 16 -32 29 -45 34 -26
10z"/>
<path d="M1316 711 l-20 -26 25 20 c13 11 25 21 27 21 2 1 0 4 -5 7 -4 3 -17
-7 -27 -22z"/>
<path d="M1065 720 c-3 -5 -1 -10 4 -10 6 0 11 5 11 10 0 6 -2 10 -4 10 -3 0
-8 -4 -11 -10z"/>
<path d="M1108 723 c6 -2 18 -2 25 0 6 3 1 5 -13 5 -14 0 -19 -2 -12 -5z"/>
<path d="M1235 664 c-52 -26 -47 -26 18 -3 20 7 37 17 37 21 0 4 -1 8 -2 7 -2
0 -25 -12 -53 -25z"/>
<path d="M1005 660 c-3 -5 1 -10 10 -10 9 0 13 5 10 10 -3 6 -8 10 -10 10 -2
0 -7 -4 -10 -10z"/>
<path d="M1105 660 c3 -5 8 -10 11 -10 2 0 4 5 4 10 0 6 -5 10 -11 10 -5 0 -7
-4 -4 -10z"/>
<path d="M1490 613 c0 -23 3 -44 8 -46 11 -7 13 53 2 72 -7 12 -9 5 -10 -26z"/>
<path d="M1470 568 c0 -15 5 -30 10 -33 13 -8 13 25 0 45 -8 12 -10 9 -10 -12z"/>
<path d="M1057 556 c-4 -15 -6 -31 -2 -34 10 -10 16 6 13 35 l-3 28 -8 -29z"/>
<path d="M1168 546 c-3 -14 -2 -26 3 -26 14 0 20 20 11 36 -8 14 -10 12 -14
-10z"/>
<path d="M1110 526 c0 -2 7 -7 16 -10 8 -3 12 -2 9 4 -6 10 -25 14 -25 6z"/>
<path d="M1130 469 c0 -6 -7 -9 -15 -6 -8 4 -17 2 -20 -3 -4 -6 5 -10 19 -10
16 0 26 6 26 15 0 8 -2 15 -5 15 -3 0 -5 -5 -5 -11z"/>
<path d="M557 443 c-13 -12 -7 -51 8 -57 34 -13 66 24 44 50 -12 15 -41 19
-52 7z"/>
<path d="M1664 424 c-10 -39 30 -60 56 -29 18 22 3 55 -25 55 -18 0 -26 -7
-31 -26z"/>
<path d="M1506 409 c-18 -18 -16 -49 3 -49 15 0 22 18 10 26 -8 5 -8 9 1 14 7
4 11 12 9 17 -2 6 -12 2 -23 -8z"/>
<path d="M1055 390 c-3 -5 -1 -10 4 -10 6 0 11 5 11 10 0 6 -2 10 -4 10 -3 0
-8 -4 -11 -10z"/>
<path d="M1170 390 c0 -5 5 -10 11 -10 5 0 7 5 4 10 -3 6 -8 10 -11 10 -2 0
-4 -4 -4 -10z"/>
<path d="M740 382 c0 -5 11 -15 25 -22 20 -11 28 -11 38 -1 10 10 8 12 -8 9
-12 -2 -19 2 -17 10 1 6 -7 12 -18 12 -11 0 -20 -4 -20 -8z"/>
<path d="M1008 373 c7 -3 16 -2 19 1 4 3 -2 6 -13 5 -11 0 -14 -3 -6 -6z"/>
<path d="M1218 373 c7 -3 16 -2 19 1 4 3 -2 6 -13 5 -11 0 -14 -3 -6 -6z"/>
<path d="M1522 344 c-32 -22 -28 -37 9 -29 29 7 31 5 26 -14 -3 -14 0 -24 9
-28 22 -8 26 1 13 31 -9 18 -20 26 -38 27 -26 0 -26 0 -3 9 12 5 22 12 22 15
0 9 -15 5 -38 -11z"/>
<path d="M720 341 c18 -5 24 -14 23 -29 -2 -12 2 -22 8 -22 6 0 9 12 7 28 -2
22 -8 27 -33 29 -28 2 -28 1 -5 -6z"/>
<path d="M706 322 c-6 -10 -2 -60 6 -67 14 -14 28 24 18 49 -10 27 -15 31 -24
18z"/>
<path d="M987 313 c-12 -11 -8 -21 12 -28 22 -7 51 3 51 18 0 8 -3 8 -11 0
-13 -13 -42 -6 -33 8 6 10 -9 12 -19 2z"/>
<path d="M1449 298 c0 -13 -3 -17 -6 -10 -2 6 -12 12 -21 12 -14 0 -14 -2 -3
-9 11 -7 11 -9 0 -14 -10 -4 -11 -6 -1 -6 7 -1 17 -12 22 -26 15 -40 31 -30
25 15 -6 50 7 52 25 3 9 -25 15 -32 18 -21 5 23 -25 78 -43 78 -9 0 -15 -10
-16 -22z"/>
<path d="M807 304 c-3 -4 -2 -15 3 -24 7 -13 5 -21 -4 -29 -11 -9 -15 -6 -20
15 -10 37 -18 24 -10 -14 4 -18 13 -32 20 -32 12 0 44 59 44 81 0 10 -24 12
-33 3z"/>
<path d="M1226 295 c-3 -8 -1 -15 4 -15 6 0 10 5 10 10 0 6 11 8 26 4 19 -5
25 -4 20 5 -10 16 -53 14 -60 -4z"/>
<path d="M850 280 c0 -6 4 -9 9 -6 4 3 5 -12 1 -34 -8 -46 0 -51 24 -15 9 14
12 25 6 25 -6 0 -10 8 -8 17 2 10 -4 19 -14 21 -10 2 -18 -2 -18 -8z"/>
<path d="M1380 261 c6 -21 4 -33 -4 -40 -15 -13 -26 -4 -26 19 0 24 -26 45
-36 29 -4 -7 0 -17 8 -23 8 -6 18 -23 22 -38 5 -23 10 -26 24 -19 9 5 25 12
34 15 16 5 16 8 3 33 -8 15 -15 34 -15 41 0 6 -4 12 -9 12 -6 0 -6 -12 -1 -29z"/>
<path d="M905 269 c-4 -6 -4 -13 0 -17 3 -3 10 0 15 8 6 8 10 10 10 5 0 -6 -4
-15 -9 -20 -13 -15 -23 -65 -12 -65 4 0 11 12 15 28 3 15 8 37 12 50 5 16 2
22 -9 22 -9 0 -19 -5 -22 -11z"/>
<path d="M957 263 c-14 -13 -6 -20 18 -15 22 4 25 1 25 -22 0 -14 -4 -26 -10
-26 -5 0 -10 -7 -10 -15 0 -8 7 -15 15 -15 19 0 31 65 15 85 -13 16 -42 20
-53 8z"/>
<path d="M1183 259 c-31 -9 -55 -29 -34 -29 5 0 12 4 16 10 8 12 35 1 35 -15
0 -8 -9 -10 -25 -7 -22 4 -25 1 -25 -27 0 -21 5 -31 15 -31 8 0 15 7 15 15 0
8 -4 15 -10 15 -5 0 -10 5 -10 10 0 18 17 10 30 -15 21 -38 28 -30 26 30 0 30
-1 55 -1 54 0 0 -14 -5 -32 -10z"/>
<path d="M1242 250 c-14 -13 -13 -15 12 -18 25 -3 27 -6 21 -33 -5 -22 -3 -29
9 -29 27 0 21 59 -6 70 l-23 9 23 0 c12 1 22 5 22 10 0 15 -41 8 -58 -9z"/>
<path d="M1058 249 c-18 -10 -23 -75 -7 -85 9 -5 41 37 33 45 -3 3 -9 -1 -14
-9 -7 -11 -9 -6 -7 15 2 19 8 30 17 30 15 0 17 -5 19 -57 2 -44 21 -33 21 12
0 29 -5 42 -19 50 -23 12 -22 12 -43 -1z"/>
<path d="M1204 135 c4 -24 16 -30 16 -7 0 12 -4 22 -9 22 -5 0 -8 -7 -7 -15z"/>
</g>
</svg>
